<svg xmlns="http://www.w3.org/2000/svg" width="64" height="64" viewBox="0 0 64 64">
  <rect width="64" height="64" rx="14" fill="#0B1220"/>
  <g fill="#FFFFFF">
    <!-- robot head outline (pixel) on 11-unit grid, scaled, centered -->
    <rect x="18" y="9"  width="6" height="6"/>
    <rect x="24" y="9"  width="6" height="6"/>
    <rect x="30" y="9"  width="6" height="6"/>
    <rect x="36" y="9"  width="6" height="6"/>
    <rect x="12" y="15" width="6" height="6"/>
    <rect x="42" y="15" width="6" height="6"/>
    <rect x="12" y="21" width="6" height="6"/>
    <rect x="42" y="21" width="6" height="6"/>
    <rect x="18" y="15" width="6" height="6"/>
    <rect x="36" y="15" width="6" height="6"/>
    <rect x="18" y="33" width="6" height="6"/>
    <rect x="36" y="33" width="6" height="6"/>
    <rect x="18" y="39" width="6" height="6"/>
    <rect x="24" y="39" width="6" height="6"/>
    <rect x="30" y="39" width="6" height="6"/>
    <rect x="36" y="39" width="6" height="6"/>
    <rect x="18" y="45" width="6" height="6"/>
    <rect x="36" y="45" width="6" height="6"/>
  </g>
  <g fill="#A3CC39">
    <!-- eyes -->
    <rect x="23" y="21" width="6" height="8"/>
    <rect x="31" y="21" width="6" height="8"/>
    <!-- mouth -->
    <rect x="27" y="33" width="8" height="5"/>
  </g>
</svg>
